<svg xmlns="http://www.w3.org/2000/svg" data-name="Layer 1" width="816.222" height="700.597"><path d="M580.132 698.194a34.814 34.814 0 0 1-16.746-4.309L86.978 433.34a35.04 35.04 0 0 1-13.914-47.501L274.112 18.223a35 35 0 0 1 47.502-13.914l476.408 260.546a35.04 35.04 0 0 1 13.914 47.501L610.888 679.971a34.771 34.771 0 0 1-20.869 16.795 35.147 35.147 0 0 1-9.887 1.428Zm-13.867-9.573a29 29 0 0 0 39.359-11.528l201.047-367.616a29.033 29.033 0 0 0-11.528-39.358L318.735 9.572A29 29 0 0 0 279.376 21.1L78.329 388.717a29.033 29.033 0 0 0 11.528 39.359Z" fill="#f2f2f2"/><path d="M589.955 569.623a32.706 32.706 0 0 1-15.682-4.016L189.11 354.963a32.47 32.47 0 0 1-12.92-44.108L296.262 91.303a32.497 32.497 0 0 1 44.109-12.92l385.162 210.644a32.498 32.498 0 0 1 12.92 44.109l-.438-.24.438.24-120.071 219.55a32.364 32.364 0 0 1-28.427 16.937Z" fill="#f2f2f2"/><path d="M578 698.097H35a32.537 32.537 0 0 1-32.5-32.5v-419a32.537 32.537 0 0 1 32.5-32.5h543a32.537 32.537 0 0 1 32.5 32.5v419a32.537 32.537 0 0 1-32.5 32.5Z" fill="none"/><path d="M578 700.597H35a35.04 35.04 0 0 1-35-35v-419a35.04 35.04 0 0 1 35-35h543a35.04 35.04 0 0 1 35 35v419a35.04 35.04 0 0 1-35 35Zm-543-483a29.033 29.033 0 0 0-29 29v419a29.033 29.033 0 0 0 29 29h543a29.033 29.033 0 0 0 29-29v-419a29.033 29.033 0 0 0-29-29Z" fill="#e6e6e6"/><path d="M391.003 351.885a40.764 40.764 0 0 0-32.551 16.185 26.84 26.84 0 0 0-37.45 24.648h110.834a40.833 40.833 0 0 0-40.833-40.834Z" fill="#e6e6e6"/><circle cx="148.197" cy="445.96" r="65.757" fill="#95bdf4"/><path d="M533.36 581.477a31.878 31.878 0 0 1-7.36.85H87a31.875 31.875 0 0 1-15.46-3.97l1.17-1.68 48.98-70.53 72.58-104.49 1.06-1.53 11.42-16.44a8.337 8.337 0 0 1 13.7 0l37.94 54.61v.01l22.32 32.14 53.28 76.7 80.81-115.35a8.348 8.348 0 0 1 13.68 0l51.84 73.99 2.98 4.25Z" fill="#3f3d56"/><path d="M303.73 420.067a50.293 50.293 0 0 0-40.16 19.97 33.114 33.114 0 0 0-46.204 30.409h136.743a50.379 50.379 0 0 0-50.38-50.38Z" fill="#ccc"/><path d="M526 583.327H87a32.97 32.97 0 0 1-33-33v-250.24a33.037 33.037 0 0 1 33-33h439a33.037 33.037 0 0 1 33 33v250.24a32.962 32.962 0 0 1-33 33ZM87 269.087a31.035 31.035 0 0 0-31 31v250.24a30.97 30.97 0 0 0 31 31h439a30.964 30.964 0 0 0 31-31v-250.24a31.035 31.035 0 0 0-31-31Z" fill="#3f3d56"/></svg>